<svg width="24" height="24" viewBox="0 0 24 24" fill="none" xmlns="http://www.w3.org/2000/svg">
<path d="M19.875 6.26959C20.2183 6.46545 20.5034 6.74905 20.7011 7.09134C20.8988 7.43363 21.002 7.82232 21 8.21759V15.5016C21 16.3106 20.557 17.0566 19.842 17.4496L13.092 21.7196C12.7573 21.9032 12.3817 21.9995 12 21.9995C11.6183 21.9995 11.2427 21.9032 10.908 21.7196L4.158 17.4496C3.80851 17.258 3.51676 16.9762 3.31311 16.6337C3.10945 16.2911 3.00133 15.9001 3 15.5016V8.21659C3 7.40759 3.443 6.66259 4.158 6.26959L10.908 2.28959C11.2525 2.09963 11.6396 2 12.033 2C12.4264 2 12.8135 2.09963 13.158 2.28959L19.908 6.26959H19.875Z" stroke="#4A90FF" stroke-linecap="round" stroke-linejoin="round"/>
<path d="M9 12C9 12.7956 9.31607 13.5587 9.87868 14.1213C10.4413 14.6839 11.2044 15 12 15C12.7956 15 13.5587 14.6839 14.1213 14.1213C14.6839 13.5587 15 12.7956 15 12C15 11.2044 14.6839 10.4413 14.1213 9.87868C13.5587 9.31607 12.7956 9 12 9C11.2044 9 10.4413 9.31607 9.87868 9.87868C9.31607 10.4413 9 11.2044 9 12Z" stroke="#4A90FF" stroke-linecap="round" stroke-linejoin="round"/>
</svg>
